<?xml version="1.0" standalone="no"?>
<!DOCTYPE svg PUBLIC "-//W3C//DTD SVG 20010904//EN" "http://www.w3.org/TR/2001/REC-SVG-20010904/DTD/svg10.dtd">
<!-- Created using Krita: https://krita.org -->
<svg xmlns="http://www.w3.org/2000/svg" 
    xmlns:xlink="http://www.w3.org/1999/xlink"
    xmlns:krita="http://krita.org/namespaces/svg/krita"
    xmlns:sodipodi="http://sodipodi.sourceforge.net/DTD/sodipodi-0.dtd"
    width="350pt"
    height="665pt"
    viewBox="0 0 350 665">
<defs/>
<path id="shape0" transform="translate(-81.2959953074021, -319.790621081349)" fill="#404040" fill-rule="evenodd" stroke="none" stroke-width="3" stroke-linecap="square" stroke-linejoin="bevel" d="M42.0492 651.562C36.9269 629.366 32.3045 624.169 27.1822 574.472C27.1822 543.738 26.6822 523.504 26.6822 492.77C24.1557 462.536 14.4733 428.113 0.0459755 399.543C-0.248836 390.363 0.768853 376.871 6.19279 367.784C13.6783 380.894 22.6362 393.687 31.8045 403.641C27.4863 385.804 21.4092 367.684 11.1141 350.268C11.1606 343.401 12.5631 335.086 19.4838 323.668C25.1833 332.982 35.8755 344.21 43.0737 351.393C38.6882 335.773 33.6717 319.884 25.6577 305.292C34.1666 240.807 97.8825 38.66 238.747 0C362.941 56.1954 236.402 254.585 204.94 312.463C168.526 320.785 140.948 328.265 112.738 354.466C150.656 344.085 163.122 340.015 185.475 339.099C170.427 371.125 159.166 396.21 127.08 420.032C100.258 438.94 70.9123 454.062 52.2939 493.794C74.2663 327.025 165.232 180.029 246.943 47.1256C168.548 145.114 3.07053 328.083 42.0492 651.562" sodipodi:nodetypes="cccccccccccccccccc"/>
</svg>
